HIERARCHY
ROOT Hips
{
	OFFSET 0.000000 0.000000 0.000000
	CHANNELS 6 Xposition Yposition Zposition Xrotation Yrotation Zrotation
	JOINT LeftUpLeg_virtual
	{
		OFFSET 0.000000 0.000000 0.000000
		CHANNELS 3 Xrotation Yrotation Zrotation
		JOINT LeftUpLeg
		{
			OFFSET 15.427100 -6.655098 0.678600
			CHANNELS 3 Xrotation Yrotation Zrotation
			JOINT LeftLeg
			{
				OFFSET 4.081073 -39.591068 13.024000
				CHANNELS 3 Xrotation Yrotation Zrotation
				JOINT LeftFoot
				{
					OFFSET -4.081074 -37.707932 -15.979700
					CHANNELS 3 Xrotation Yrotation Zrotation
					JOINT LeftToeBase
					{
						OFFSET 5.346399 -15.068900 20.645000
						CHANNELS 3 Xrotation Yrotation Zrotation
						JOINT LeftToe_End
						{
							OFFSET 2.754700 0.931300 11.300900
							CHANNELS 3 Xrotation Yrotation Zrotation
							End Site
							{
								OFFSET 0 0 0
							}
						}
					}
				}
			}
		}
	}
	JOINT RightUpLeg_virtual
	{
		OFFSET 0.000000 0.000000 0.000000
		CHANNELS 3 Xrotation Yrotation Zrotation
		JOINT RightUpLeg
		{
			OFFSET -15.569500 -6.655098 0.678600
			CHANNELS 3 Xrotation Yrotation Zrotation
			JOINT RightLeg
			{
				OFFSET -4.081825 -39.591045 13.023800
				CHANNELS 3 Xrotation Yrotation Zrotation
				JOINT RightFoot
				{
					OFFSET 4.081824 -37.707954 -15.979600
					CHANNELS 3 Xrotation Yrotation Zrotation
					JOINT RightToeBase
					{
						OFFSET -5.346400 -15.068900 20.645000
						CHANNELS 3 Xrotation Yrotation Zrotation
						JOINT RightToe_End
						{
							OFFSET -2.754700 0.931300 11.300900
							CHANNELS 3 Xrotation Yrotation Zrotation
							End Site
							{
								OFFSET 0 0 0
							}
						}
					}
				}
			}
		}
	}
	JOINT Spine_virtual
	{
		OFFSET 0.000000 0.000000 0.000000
		CHANNELS 3 Xrotation Yrotation Zrotation
		JOINT Spine
		{
			OFFSET -0.279200 12.230698 -2.892100
			CHANNELS 3 Xrotation Yrotation Zrotation
			JOINT Spine1
			{
				OFFSET -0.232667 10.192268 -1.242267
				CHANNELS 3 Xrotation Yrotation Zrotation
				JOINT Spine1_split
				{
					OFFSET -0.232667 10.192268 -1.242267
					CHANNELS 3 Xrotation Yrotation Zrotation
					JOINT Spine2
					{
						OFFSET -0.232667 10.192268 -1.242267
						CHANNELS 3 Xrotation Yrotation Zrotation
						JOINT Neck_virtual
						{
							OFFSET 0.000000 0.000000 0.000000
							CHANNELS 3 Xrotation Yrotation Zrotation
							JOINT Neck
							{
								OFFSET -0.418800 17.814194 8.416900
								CHANNELS 3 Xrotation Yrotation Zrotation
								JOINT Head
								{
									OFFSET 0.000000 7.031097 3.806800
									CHANNELS 3 Xrotation Yrotation Zrotation
									JOINT HeadTop_End
									{
										OFFSET 0.000000 24.646606 12.978600
										CHANNELS 3 Xrotation Yrotation Zrotation
										End Site
										{
											OFFSET 0 0 0
										}
									}
								}
							}
						}
						JOINT LeftShoulder_virtual
						{
							OFFSET 0.000000 0.000000 0.000000
							CHANNELS 3 Xrotation Yrotation Zrotation
							JOINT LeftShoulder
							{
								OFFSET 8.476499 7.247704 -3.868750
								CHANNELS 3 Xrotation Yrotation Zrotation
								JOINT LeftShoulder_split
								{
									OFFSET 8.476499 7.247704 -3.868750
									CHANNELS 3 Xrotation Yrotation Zrotation
									JOINT LeftArm
									{
										OFFSET 9.308998 -2.777710 0.208600
										CHANNELS 3 Xrotation Yrotation Zrotation
										JOINT LeftForeArm
										{
											OFFSET 29.972298 0.000000 0.000000
											CHANNELS 3 Xrotation Yrotation Zrotation
											JOINT LeftHand
											{
												OFFSET 26.026505 0.000000 0.000000
												CHANNELS 3 Xrotation Yrotation Zrotation
												End Site
												{
													OFFSET 0 0 0
												}
											}
										}
									}
								}
							}
						}
						JOINT RightShoulder_virtual
						{
							OFFSET 0.000000 0.000000 0.000000
							CHANNELS 3 Xrotation Yrotation Zrotation
							JOINT RightShoulder
							{
								OFFSET -7.570500 7.247704 -3.868750
								CHANNELS 3 Xrotation Yrotation Zrotation
								JOINT RightShoulder_split
								{
									OFFSET -7.570500 7.247704 -3.868750
									CHANNELS 3 Xrotation Yrotation Zrotation
									JOINT RightArm
									{
										OFFSET -9.308998 -2.777710 0.208500
										CHANNELS 3 Xrotation Yrotation Zrotation
										JOINT RightForeArm
										{
											OFFSET -29.972300 0.000000 0.000000
											CHANNELS 3 Xrotation Yrotation Zrotation
											JOINT RightHand
											{
												OFFSET -26.026505 0.000000 0.000000
												CHANNELS 3 Xrotation Yrotation Zrotation
												End Site
												{
													OFFSET 0 0 0
												}
											}
										}
									}
								}
							}
						}
					}
				}
			}
		}
	}
}
MOTION
Frames: 4
Frame Time: 0.03333333
-2.100702 71.513954 -9.017967 0.000000 0.000000 0.000000 -1.792064 -34.707190 3.924206 -24.177164 -2.239645 11.410535 50.765603 -1.071848 1.908469 -24.606165 7.708076 -17.059323 3.418956 -2.133063 -8.470899 0.000000 0.000000 0.000000 -1.798572 -35.681803 4.246956 -30.758145 -17.095801 -35.299869 58.737455 13.816919 -5.648639 -23.070332 -27.115127 34.061248 8.215499 10.618961 -17.640299 0.000000 0.000000 0.000000 -1.482262 -29.958661 2.259150 11.509384 3.092036 -2.531076 -2.150584 -1.046443 -1.704862 -0.033129 -0.208429 0.259206 0.000000 0.000000 0.000000 1.390976 1.409712 -0.126447 12.622468 11.312108 -1.235346 -16.252210 10.169383 -3.213859 0.000000 0.000000 0.000000 2.561654 -0.405449 -0.595896 1.490187 6.891000 -2.069057 -1.366112 -10.774684 -2.932775 -60.913000 -2.008374 -48.933381 -155.666473 -84.649355 -156.783782 0.000000 0.000000 0.000000 1.830968 -1.041553 -0.548950 -0.426592 9.612124 -4.393973 -0.531742 -4.748136 4.051166 -53.655217 29.121782 85.086508 -105.647624 77.029753 108.957001 0.000000 0.000000 0.000000 
-1.789735 70.880913 -7.912796 0.000000 0.000000 0.000000 -2.485511 -36.916407 3.694619 -25.597594 -2.875709 11.889211 52.048302 -0.500159 1.023781 -23.630230 9.178895 -17.029439 3.614684 -1.956209 -9.901409 0.000000 0.000000 0.000000 -2.130254 -37.228865 4.110694 -30.700929 -16.652133 -35.717702 61.245125 14.177845 -6.121934 -24.849364 -27.283156 33.061882 11.695363 9.972622 -17.609174 0.000000 0.000000 0.000000 -1.733071 -30.969314 2.188124 12.016538 3.411423 -2.653629 -1.756072 -0.976293 -1.671795 -0.003180 -0.203365 0.290545 0.000000 0.000000 0.000000 1.320787 1.311218 0.004629 12.241415 11.409564 -0.618771 -17.001188 10.918271 -4.238463 0.000000 0.000000 0.000000 2.218435 -0.259533 -0.603579 1.136089 7.041064 -2.590720 -0.170339 -12.868236 -0.827026 -62.035425 -1.556974 -48.552150 -165.824425 -85.474804 -167.398784 0.000000 0.000000 0.000000 1.820859 -1.006285 -0.577055 -0.559149 9.934131 -4.384824 1.228796 -4.087298 4.324116 -54.042905 30.727614 85.377542 -113.645202 76.366897 117.253571 0.000000 0.000000 0.000000 
-1.332069 69.068298 -6.181984 0.000000 0.000000 0.000000 -3.111431 -39.341350 3.319485 -29.196081 -3.843922 13.744616 56.892163 -2.032431 -0.116038 -21.650129 8.694060 -18.276340 3.923628 -2.122799 -11.082348 0.000000 0.000000 0.000000 -2.265866 -39.085054 3.982256 -31.049384 -15.777218 -36.751069 64.174668 14.957797 -7.285204 -25.876269 -27.619444 33.592902 11.342277 9.843031 -17.176305 0.000000 0.000000 0.000000 -1.943990 -33.100449 2.144412 12.955537 4.308177 -2.286318 -1.309547 -0.760428 -1.625899 -0.021153 -0.109231 0.229454 0.000000 0.000000 0.000000 1.410270 1.312056 0.167156 11.697822 11.883789 -0.111030 -18.066648 13.187787 -5.948048 0.000000 0.000000 0.000000 1.905934 -0.088037 -0.555722 0.893274 6.467578 -3.601187 1.230864 -13.217055 1.060612 -63.242996 -0.469060 -47.470173 -175.694390 -86.633491 -178.196767 0.000000 0.000000 0.000000 1.608845 -0.922520 -0.498334 -0.713350 10.621351 -4.548863 1.330293 -3.493284 4.075155 -52.215420 31.569906 84.220419 -122.950112 74.981803 126.501141 0.000000 0.000000 0.000000 
-0.789983 66.297272 -3.962143 0.000000 0.000000 0.000000 -3.557781 -41.628688 2.999115 -34.394316 -5.175334 16.843347 64.286014 -5.862040 -0.701925 -18.172668 6.047711 -21.264421 1.572610 -2.423803 -10.942978 0.000000 0.000000 0.000000 -2.152387 -41.101421 3.914041 -31.852638 -14.469778 -38.281619 66.723722 16.145288 -8.878921 -26.037513 -27.950019 35.306829 7.596658 10.152179 -16.576601 0.000000 0.000000 0.000000 -2.299923 -35.972434 2.038216 14.182453 5.630595 -1.578563 -0.807613 -0.401616 -1.688760 -0.006189 -0.010168 0.114306 0.000000 0.000000 0.000000 1.649947 1.470688 0.251347 10.953948 12.757259 0.283859 -19.526271 16.946664 -7.997940 0.000000 0.000000 0.000000 1.727868 0.130343 -0.576758 0.801682 5.452837 -4.817779 2.407342 -11.876567 2.173647 -63.752023 1.977907 -45.363156 176.157341 -87.144184 172.556014 0.000000 0.000000 0.000000 1.285167 -0.752149 -0.431361 -0.938891 11.588070 -4.917626 0.100131 -2.559592 3.363232 -48.553035 31.247651 81.954757 -129.318512 73.500000 132.430442 0.000000 0.000000 0.000000 
